<?xml version="1.0" standalone="no"?>
<!DOCTYPE svg PUBLIC "-//W3C//DTD SVG 20010904//EN"
 "http://www.w3.org/TR/2001/REC-SVG-20010904/DTD/svg10.dtd">
<svg version="1.0" xmlns="http://www.w3.org/2000/svg"
 width="164.000000pt" height="164.000000pt" viewBox="0 0 164.000000 164.000000"
 preserveAspectRatio="xMidYMid meet">
<metadata>
Created by potrace 1.14, written by Peter Selinger 2001-2017
</metadata>
<g transform="translate(0.000000,164.000000) scale(0.100000,-0.100000)"
fill="#000000" stroke="none">
<path d="M794 1588 c-39 -43 -314 -407 -314 -416 0 -4 5 -13 11 -19 8 -8 26 0
68 32 86 67 142 85 253 82 159 -5 223 -48 373 -252 49 -66 112 -152 142 -191
29 -40 60 -88 68 -108 37 -88 6 -224 -67 -297 -67 -66 -110 -84 -203 -83 -103
1 -131 11 -206 70 -22 16 -18 11 9 -14 116 -109 270 -120 404 -29 34 23 66 51
72 62 6 10 20 27 31 38 11 10 15 16 8 12 -8 -4 -6 12 6 47 21 64 20 142 -3
202 -14 35 -83 140 -133 201 -5 6 -67 89 -138 185 -71 96 -179 243 -240 325
-62 83 -114 156 -116 163 -3 9 -11 6 -25 -10z"/>
<path d="M890 1536 c0 -2 8 -10 18 -17 15 -13 16 -12 3 4 -13 16 -21 21 -21
13z"/>
<path d="M970 1426 c0 -2 8 -10 18 -17 15 -13 16 -12 3 4 -13 16 -21 21 -21
13z"/>
<path d="M1060 1306 c0 -2 8 -10 18 -17 15 -13 16 -12 3 4 -13 16 -21 21 -21
13z"/>
<path d="M1090 1266 c0 -2 8 -10 18 -17 15 -13 16 -12 3 4 -13 16 -21 21 -21
13z"/>
<path d="M1196 1127 c3 -10 9 -15 12 -12 3 3 0 11 -7 18 -10 9 -11 8 -5 -6z"/>
<path d="M1265 1030 c10 -11 20 -20 23 -20 3 0 -3 9 -13 20 -10 11 -20 20 -23
20 -3 0 3 -9 13 -20z"/>
<path d="M1290 996 c0 -2 8 -10 18 -17 15 -13 16 -12 3 4 -13 16 -21 21 -21
13z"/>
<path d="M426 943 c-3 -3 -19 -7 -37 -9 -47 -6 -127 -53 -166 -99 -59 -68 -77
-119 -77 -215 -1 -101 23 -160 91 -227 64 -64 122 -87 218 -87 99 -1 162 25
226 91 l44 45 -50 -31 c-27 -17 -63 -35 -80 -40 -45 -12 -128 -5 -166 14 -31
16 -116 85 -104 85 3 0 -4 9 -14 19 -33 33 -59 158 -28 132 8 -6 17 -7 21 -3
4 4 112 7 239 7 l232 0 -3 40 c-5 57 -34 117 -81 168 -22 24 -38 46 -36 49 3
3 -3 11 -12 19 -16 13 -17 12 -4 -3 17 -23 16 -23 -42 5 -26 13 -45 26 -41 29
3 4 -3 4 -15 1 -14 -3 -21 -1 -21 8 0 10 -2 11 -8 2 -5 -8 -19 -9 -44 -4 -20
5 -39 6 -42 4z m131 -77 c45 -23 82 -63 103 -108 21 -45 28 -106 10 -78 -5 8
-10 10 -10 4 0 -15 -50 -15 -50 0 0 6 -5 4 -11 -4 -9 -12 -12 -13 -16 -1 -5
11 -7 11 -15 0 -8 -12 -10 -12 -15 0 -5 11 -7 11 -15 0 -8 -12 -10 -12 -15 0
-5 11 -7 11 -14 0 -8 -12 -10 -12 -18 0 -7 11 -10 11 -15 0 -5 -12 -7 -12 -12
0 -5 11 -8 11 -15 0 -8 -12 -10 -12 -18 0 -7 11 -10 11 -15 0 -5 -12 -7 -12
-12 0 -5 11 -8 11 -15 0 -8 -12 -10 -12 -18 0 -7 11 -9 11 -14 0 -4 -12 -7
-11 -16 1 -7 10 -11 11 -11 3 0 -25 -20 -12 -30 20 l-10 32 5 -32 c4 -32 -7
-44 -20 -23 -9 14 14 81 26 75 5 -4 6 0 4 7 -3 8 2 22 11 33 8 11 12 14 8 6
-5 -9 -3 -12 4 -7 7 4 12 12 12 18 0 16 51 57 85 68 37 11 96 5 132 -14z"/>
<path d="M1340 926 c0 -2 8 -10 18 -17 15 -13 16 -12 3 4 -13 16 -21 21 -21
13z"/>
<path d="M711 834 c19 -22 36 -39 39 -37 2 2 -13 20 -35 41 l-39 37 35 -41z"/>
<path d="M297 529 c4 -13 8 -18 11 -10 2 7 -1 18 -6 23 -8 8 -9 4 -5 -13z"/>
<path d="M817 332 c-24 -27 -21 -36 4 -11 11 11 19 23 16 25 -2 2 -11 -4 -20
-14z"/>
<path d="M791 246 c-17 -59 -64 -130 -109 -164 -19 -14 -64 -37 -101 -49 l-66
-24 54 7 c65 7 120 26 188 64 l52 30 47 -30 c44 -27 102 -50 167 -64 40 -9 33
8 -10 23 -74 26 -182 133 -183 181 -1 8 -6 28 -13 43 l-12 29 -14 -46z"/>
<path d="M905 140 c10 -11 20 -20 23 -20 3 0 -3 9 -13 20 -10 11 -20 20 -23
20 -3 0 3 -9 13 -20z"/>
<path d="M1068 13 c7 -3 16 -2 19 1 4 3 -2 6 -13 5 -11 0 -14 -3 -6 -6z"/>
</g>
</svg>
